{
	"patcher" : 	{
		"fileversion" : 1,
		"rect" : [ 166.0, 338.0, 245.0, 295.0 ],
		"bglocked" : 0,
		"defrect" : [ 166.0, 338.0, 245.0, 295.0 ],
		"openrect" : [ 0.0, 0.0, 0.0, 0.0 ],
		"openinpresentation" : 0,
		"default_fontsize" : 12.0,
		"default_fontface" : 0,
		"default_fontname" : "Arial",
		"gridonopen" : 0,
		"gridsize" : [ 15.0, 15.0 ],
		"gridsnaponopen" : 0,
		"toolbarvisible" : 1,
		"boxanimatetime" : 200,
		"imprint" : 0,
		"enablehscroll" : 1,
		"enablevscroll" : 1,
		"devicewidth" : 0.0,
		"boxes" : [ 			{
				"box" : 				{
					"maxclass" : "inlet",
					"patching_rect" : [ 185.0, 57.0, 15.0, 15.0 ],
					"numinlets" : 0,
					"id" : "obj-8",
					"numoutlets" : 1,
					"outlettype" : [ "" ],
					"presentation_rect" : [ 190.0, 64.0, 0.0, 0.0 ],
					"comment" : ""
				}

			}
, 			{
				"box" : 				{
					"maxclass" : "comment",
					"text" : "bw* pi",
					"patching_rect" : [ 83.0, 67.0, 44.0, 19.0 ],
					"numinlets" : 1,
					"id" : "obj-1",
					"fontname" : "Geneva",
					"numoutlets" : 0,
					"fontsize" : 9.0
				}

			}
, 			{
				"box" : 				{
					"maxclass" : "outlet",
					"patching_rect" : [ 41.0, 228.0, 15.0, 15.0 ],
					"numinlets" : 1,
					"id" : "obj-2",
					"numoutlets" : 0,
					"comment" : ""
				}

			}
, 			{
				"box" : 				{
					"maxclass" : "inlet",
					"patching_rect" : [ 41.0, 58.0, 15.0, 15.0 ],
					"numinlets" : 0,
					"id" : "obj-3",
					"numoutlets" : 1,
					"outlettype" : [ "" ],
					"comment" : ""
				}

			}
, 			{
				"box" : 				{
					"maxclass" : "newobj",
					"text" : "pack 0. 0. 0.",
					"patching_rect" : [ 41.0, 194.0, 80.0, 19.0 ],
					"numinlets" : 3,
					"id" : "obj-4",
					"fontname" : "Geneva",
					"numoutlets" : 1,
					"outlettype" : [ "" ],
					"fontsize" : 9.0
				}

			}
, 			{
				"box" : 				{
					"maxclass" : "newobj",
					"text" : "* 3.141593",
					"patching_rect" : [ 111.0, 126.0, 83.0, 19.0 ],
					"numinlets" : 2,
					"id" : "obj-5",
					"fontname" : "Geneva",
					"numoutlets" : 1,
					"outlettype" : [ "float" ],
					"fontsize" : 9.0
				}

			}
, 			{
				"box" : 				{
					"maxclass" : "newobj",
					"text" : "unpack 0. 0. 0.",
					"patching_rect" : [ 41.0, 89.0, 81.0, 19.0 ],
					"numinlets" : 1,
					"id" : "obj-6",
					"fontname" : "Geneva",
					"numoutlets" : 3,
					"outlettype" : [ "float", "float", "float" ],
					"fontsize" : 9.0
				}

			}
, 			{
				"box" : 				{
					"maxclass" : "comment",
					"text" : "bw->decay-rate",
					"patching_rect" : [ 81.0, 51.0, 100.0, 19.0 ],
					"numinlets" : 1,
					"id" : "obj-7",
					"fontname" : "Geneva",
					"numoutlets" : 0,
					"fontsize" : 9.0
				}

			}
 ],
		"lines" : [ 			{
				"patchline" : 				{
					"source" : [ "obj-8", 0 ],
					"destination" : [ "obj-5", 1 ],
					"hidden" : 0,
					"midpoints" : [  ]
				}

			}
, 			{
				"patchline" : 				{
					"source" : [ "obj-3", 0 ],
					"destination" : [ "obj-6", 0 ],
					"hidden" : 0,
					"midpoints" : [  ]
				}

			}
, 			{
				"patchline" : 				{
					"source" : [ "obj-6", 0 ],
					"destination" : [ "obj-4", 0 ],
					"hidden" : 0,
					"midpoints" : [  ]
				}

			}
, 			{
				"patchline" : 				{
					"source" : [ "obj-4", 0 ],
					"destination" : [ "obj-2", 0 ],
					"hidden" : 0,
					"midpoints" : [  ]
				}

			}
, 			{
				"patchline" : 				{
					"source" : [ "obj-6", 1 ],
					"destination" : [ "obj-4", 1 ],
					"hidden" : 0,
					"midpoints" : [  ]
				}

			}
, 			{
				"patchline" : 				{
					"source" : [ "obj-6", 2 ],
					"destination" : [ "obj-5", 0 ],
					"hidden" : 0,
					"midpoints" : [  ]
				}

			}
, 			{
				"patchline" : 				{
					"source" : [ "obj-5", 0 ],
					"destination" : [ "obj-4", 2 ],
					"hidden" : 0,
					"midpoints" : [  ]
				}

			}
 ]
	}

}
